<svg width="68" height="102" viewBox="0 0 68 102" fill="none" xmlns="http://www.w3.org/2000/svg">
<path d="M47.4666 14.4717L47.5019 14.5043L47.5393 14.5346L60.6044 25.128C61.4419 25.8071 61.9197 26.8342 61.8995 27.9121L61.4683 50.972L61.4677 51L61.4683 51.028L61.8995 74.0879C61.9197 75.1658 61.4419 76.1929 60.6044 76.872L47.5393 87.4654L47.5019 87.4957L47.4666 87.5283L36.3739 97.7674C35.0332 99.0049 32.9668 99.0049 31.6261 97.7674L20.5334 87.5283L20.4981 87.4957L20.4607 87.4654L7.39557 76.872C6.55812 76.1929 6.08035 75.1658 6.10051 74.0879L6.53174 51.028L6.53226 51L6.53174 50.972L6.10051 27.9121C6.08035 26.8342 6.55812 25.8071 7.39558 25.128L20.4607 14.5346L20.4981 14.5043L20.5334 14.4717L31.6261 4.23261C32.9668 2.99507 35.0332 2.99507 36.3739 4.23261L47.4666 14.4717Z" stroke="white" stroke-width="3"/>
<path d="M47.75 29.4347L47.785 29.4543L47.8209 29.472L59.8955 35.423C61.1261 36.0295 61.8888 37.2989 61.8466 38.67L61.4687 50.9539L61.4673 51L61.4687 51.0461L61.8466 63.3299C61.8888 64.7011 61.126 65.9705 59.8955 66.577L47.8209 72.528L47.785 72.5457L47.75 72.5653L35.7126 79.3191C34.6489 79.916 33.3511 79.916 32.2874 79.3191L20.25 72.5653L20.215 72.5457L20.1791 72.528L8.10445 66.577C6.87395 65.9705 6.11119 64.7011 6.15337 63.3299L6.53129 51.0461L6.53271 51L6.53129 50.9539L6.15337 38.6701C6.11119 37.2989 6.87395 36.0295 8.10445 35.423L20.1791 29.472L20.215 29.4543L20.25 29.4347L32.2874 22.6809C33.3511 22.084 34.6489 22.084 35.7126 22.6809L47.75 29.4347Z" stroke="white" stroke-width="3"/>
<path d="M48.1911 44.3547L48.2083 44.3582L48.2256 44.3612L58.6705 46.1878C60.4589 46.5006 61.7113 48.129 61.5545 49.9378L61.5111 50.4385C61.4787 50.8121 61.4787 51.1879 61.5111 51.5615L61.5545 52.0622C61.7113 53.871 60.4589 55.4994 58.6705 55.8122L48.2256 57.6388L48.2083 57.6418L48.1911 57.6453L34.6834 60.3345C34.2322 60.4243 33.7678 60.4243 33.3166 60.3345L19.8089 57.6453L19.7917 57.6418L19.7744 57.6388L9.32951 55.8122C7.54105 55.4994 6.2887 53.871 6.44553 52.0622L6.48895 51.5615L4.99455 51.4319L6.48895 51.5615C6.52134 51.1879 6.52134 50.8121 6.48895 50.4385L4.99455 50.5681L6.48895 50.4385L6.44553 49.9378C6.2887 48.129 7.54105 46.5006 9.32951 46.1878L19.7744 44.3612L19.7917 44.3582L19.8089 44.3547L33.3166 41.6655C33.7678 41.5757 34.2322 41.5757 34.6834 41.6655L48.1911 44.3547Z" stroke="white" stroke-width="3"/>
</svg>
